# xmcd
# 
# Track frame offsets:
#     150
#     19507
#     42760
#     71055
#     88572
#     105322
#     127572
#     161505
#     177752
#     209055
#     237907
#     262965
#     273150
# 
# Disc length: 4010
# 
# Revision: 5
# Processed by: cddbd v1.5.2PL0 Copyright (c) Steve Scherf et al.
# Submitted via: fre:ac v1.0.31
# 
DISCID=9e0fa80d
DTITLE=John Mayall - Back To The Roots Disc 1
DYEAR=1971
DGENRE=Blues
TTITLE0=Prisons On The Road
TTITLE1=My Children
TTITLE2=Accidental Suicide
TTITLE3=Groupie Girl
TTITLE4=Blue Fox
TTITLE5=Home Again
TTITLE6=Television Eye
TTITLE7=Marriage Madness
TTITLE8=Looking At Tomorrow
TTITLE9=Accidental Suicide (Remix)
TTITLE10=Force Of Nature (Remix)
TTITLE11=Boogie Albert (Remix)
TTITLE12=Television Eye (Remix)
EXTD=YEAR: 2001
EXTT0=
EXTT1=
EXTT2=
EXTT3=
EXTT4=
EXTT5=
EXTT6=
EXTT7=
EXTT8=
EXTT9=
EXTT10=
EXTT11=
EXTT12=
PLAYORDER=
